<?xml version='1.0' encoding='utf-8'?>
<svg xmlns="http://www.w3.org/2000/svg" enable-background="new 0 0 126.05 47.15" version="1.1" viewBox="0 0 126.05 47.15">
<g clip-rule="evenodd" fill-rule="evenodd">
	<path d="m39.05 39.55c0.167-0.467 0.333-0.783 0.5-0.95-1.933 0.067-3.366 0-4.3-0.199 0.1-0.2 0.1-0.417 0-0.65-0.7 0.267-1.733 0.4-3.1 0.4-1.4 0.033-2.417 0.149-3.05 0.35-0.1 0.033-0.667 0.35-1.7 0.95-0.6 0.366-1.216 0.5-1.85 0.399 0.067-0.199 0.184-0.616 0.35-1.25h-1.9c-0.733-0.033-1.367-0.149-1.9-0.35 0.167-0.233 0.367-0.65 0.6-1.25-1.434 0.267-2.717 0.316-3.85 0.15 0.933-0.2 1.633-0.717 2.1-1.551-1.167 0.034-2.034 0.051-2.6 0.051-1.034 0-1.867-0.134-2.5-0.4-0.067-0.233-0.034-0.434 0.1-0.6-1.333 0.733-2.7 0.866-4.1 0.399 0.066-0.166 0.083-0.533 0.05-1.1 0-0.5 0.067-0.884 0.2-1.15-1.567 0.667-2.8 0.684-3.7 0.05 0.133-0.399 0.267-0.716 0.4-0.949-1.233 0.033-1.933 0.05-2.1 0.05-0.767-0.033-1.367-0.25-1.8-0.65 1.067-0.467 1.7-0.717 1.9-0.75-1.8 0.167-3.267-0.133-4.4-0.9 0.467-0.667 1.417-1.167 2.85-1.5-0.233-0.1-0.583-0.317-1.05-0.65-0.5-0.333-0.85-0.55-1.05-0.65 0.5-0.166 1.167-0.267 2-0.3 1.233 0 1.95-0.017 2.15-0.05-0.833-0.3-1.767-0.417-2.8-0.35 0.1-0.067 0.35-0.301 0.75-0.7 0.333-0.367 0.617-0.617 0.85-0.75-0.133-0.033-0.85-0.217-2.15-0.55-0.867-0.2-1.5-0.484-1.9-0.851 0.833-0.2 2.067-0.417 3.7-0.65-1.5-0.066-2.483-0.433-2.95-1.1 0.084-0.196 0.243-0.313 0.475-0.35-1.313 0.078-2.404-0.222-3.275-0.899 0.633-0.633 1.383-1.1 2.25-1.4-0.3-0.167-0.55-0.417-0.75-0.75-0.2-0.4-0.35-0.65-0.45-0.75 0.8-0.167 1.817-0.233 3.05-0.2h3.05c-0.9-0.3-1.533-0.9-1.9-1.8 0.7-0.233 1.617-0.25 2.75-0.05 0.667 0.1 1.617 0.283 2.85 0.55l30.7 3.65c3.5-0.667 8.233-0.95 14.2-0.85 7.033 0.1 11.767 0.033 14.2-0.2 1.866-0.167 4.866-0.683 9-1.55 3.833-0.833 6.833-1.3 9-1.4 6.899-0.233 11.85-1.233 14.85-3 0.267-0.167 0.533-0.433 0.8-0.8 0.233-0.367 0.45-0.617 0.65-0.75 0.1-0.066 1.133-0.833 3.1-2.3 1.467-1.133 2.434-1.733 2.9-1.8 0.3 0.667 1.25 0.95 2.85 0.85 1.5-0.066 2.417 0.467 2.75 1.6 0.233 0.033 0.584-0.033 1.051-0.2 0.066 0.167 0.183 0.5 0.35 1 0.6-0.5 1.066-0.6 1.4-0.3 0.333 0.3 0.399 0.85 0.199 1.65 0.167-0.367 0.384-0.633 0.65-0.8 0.467-0.3 0.717-0.467 0.75-0.5 0.267 0.566 0.35 1.25 0.25 2.05-0.033 0.1-0.184 0.8-0.45 2.1 0.2-0.067 0.5-0.083 0.9-0.05 0.467 0.034 0.767 0.034 0.899 0 0.033 0.333-0.05 1.3-0.25 2.9 0.2-0.034 0.517-0.017 0.95 0.05 0.434 0.067 0.733 0.083 0.9 0.05 0.066 1-0.634 1.85-2.101 2.55l0.15 0.25c-0.9 0.7-1.617 1.167-2.15 1.4 0.4 0.367 1.65 1.333 3.75 2.9 1.5 1.466 1.184 2.399-0.949 2.8 0.333 0.333 0.982 0.816 1.949 1.45 0.9 0.6 1.551 1.116 1.95 1.55-0.3 0.333-0.8 0.583-1.5 0.75-0.833 0.166-1.45 0.316-1.85 0.45 0.133 0.133 0.3 0.383 0.5 0.75-0.867 0.199-1.45 0.3-1.75 0.3 0.933 0.3 1.649 0.883 2.149 1.75-1.199-0.066-2.116-0.101-2.75-0.101-1.1 0-2 0.134-2.699 0.4 0.1 0.233 0.183 0.517 0.25 0.85 0.033 0.4 0.066 0.65 0.1 0.75-0.7 0.101-1.233 0.067-1.6-0.1-0.301 0.934-1.167 1.517-2.601 1.75-1.399 0.233-2.217-0.116-2.45-1.05 0.033 0.2 0 0.467-0.1 0.8-0.1 0.3-0.15 0.517-0.15 0.65-0.733 0.1-1.449-0.184-2.149-0.851-0.567-0.566-1-1.25-1.3-2.05-0.101 0.634-0.518 1.05-1.25 1.25-0.934 0.167-1.601 0.283-2 0.35 0 0.167-0.051 0.417-0.15 0.75-0.134 0.301-0.2 0.5-0.2 0.601-0.434-0.101-0.816-0.334-1.149-0.7-0.301-0.366-0.467-0.717-0.5-1.05-0.034 0.6-0.25 1.05-0.65 1.35-0.367 0.3-0.816 0.417-1.35 0.351 0.033-0.233 0.033-0.617 0-1.15 0-0.5 0.066-0.9 0.199-1.2-1 1.367-2.483 2.15-4.449 2.351 0.066-0.334 0.216-0.634 0.449-0.9-2.866 0.833-4.517 0.634-4.949-0.6-0.034 0.533-0.034 0.899 0 1.1-0.101-0.034-0.351-0.051-0.751-0.051-0.334 0-0.634-0.101-0.9-0.3-0.2 0.3-0.5 0.916-0.9 1.85 0.9 0.167 1.283 0.467 1.15 0.9-0.1 0.433-0.617 0.733-1.55 0.899 0.033 0.167 0.033 0.483 0 0.95-0.033 0.4-0.017 0.7 0.05 0.9-0.8-0.034-1.8-0.25-3-0.65-1.467-0.533-2.434-0.85-2.9-0.95-0.366 0.4-0.6 0.95-0.699 1.65-0.167 1.1-0.284 1.75-0.351 1.95-1 0.066-2.25-0.25-3.75-0.95 0.4 2.1-0.133 2.899-1.6 2.399-1.167-0.433-2.3-1.25-3.4-2.449 0.066 0.233 0.066 0.616 0 1.149-0.066 0.566-0.083 0.95-0.05 1.15-0.733 0-1.316-0.3-1.75-0.9-0.3-0.434-0.583-1.1-0.85-2-1.3 1.102-2.417 1.636-3.35 1.602 0.066-0.2 0.066-0.534 0-1-0.066-0.467-0.083-0.801-0.05-1l-2.775-0.051c-0.49 0.26-1.198 0.293-2.125 0.101-0.1 0.666-0.417 1.133-0.95 1.399-0.566 0.267-1.15 0.233-1.75-0.1-0.066-0.2-0.066-0.5 0-0.9-0.3 0.5-0.716 0.867-1.25 1.101-0.767 0.399-1.25 0.666-1.45 0.8 0.033 0-0.167 0.233-0.6 0.7-0.534 0.566-0.684 0.8-0.45 0.7-1 0.466-1.933 0.6-2.8 0.399-0.767-0.166-1.684-0.649-2.75-1.45-0.2 1.7-0.833 1.95-1.9 0.75-1.034-1.1-1.634-2.216-1.8-3.35-0.033 0.667-0.316 1.134-0.85 1.4-0.466 0.267-1.05 0.3-1.75 0.1 0-0.1-0.033-0.35-0.1-0.75-0.067-0.366-0.083-0.616-0.05-0.75-1.533 0.533-2.833 0.684-3.9 0.45 0.1-0.101 0.316-0.367 0.65-0.8 0.267-0.334 0.534-0.584 0.8-0.75-1.067 0.033-1.75 0.05-2.05 0.05-0.733-0.066-1.367-0.267-1.9-0.601 0.169-0.508 0.52-0.899 1.05-1.175l0.25-0.623z" fill="#2A4013"/>
	<path d="m21.6 11.2l-0.025 0.025c0.501 0.332 1.042 0.773 1.625 1.325l-1-1.65c-0.367 0.2-0.567 0.3-0.6 0.3zm46.05-8.55c1.818-0.364 2.552 0.453 2.199 2.45 0.384-1.933 1.583-2.883 3.601-2.85 2.033 0.033 2.833 1.1 2.399 3.2 0.767-1.434 1.634-1.667 2.601-0.7 0.855 0.855 1.214 1.906 1.075 3.15 0.093-0.573 0.335-1.04 0.725-1.4 0.434-0.433 0.967-0.633 1.6-0.6l-0.05 0.95c0.5-0.934 1.333-1.65 2.5-2.15 1.066-0.467 2.15-0.633 3.25-0.5v4.05c0.601-0.333 1.333-0.867 2.2-1.6 1.066-0.933 1.75-1.517 2.05-1.75 0.033 0.267 0.05 0.983 0.05 2.15 0 0.867 0.084 1.534 0.25 2 0.434-0.267 0.9-0.633 1.4-1.1 0.3-0.267 0.717-0.684 1.25-1.25 0.1 0.5 0.133 0.883 0.1 1.15 0.334-1.333 0.867-2.467 1.601-3.4 0.933-1.2 1.933-1.633 3-1.3-0.033-0.233-0.017-0.667 0.05-1.3 0.066-0.6 0.066-1.033 0-1.3 1-0.167 1.95 0.1 2.85 0.8 0.2 0.167 0.917 0.933 2.15 2.3 0.033-0.233 0.217-0.617 0.55-1.15 0.367-0.566 0.566-0.967 0.601-1.2 0.866 0.034 1.533 0.467 2 1.3 0.267 0.433 0.566 1.25 0.899 2.45 0.066-0.2 0.267-0.583 0.601-1.15 0.5 0.2 0.899 0.6 1.199 1.2 0.2 0.4 0.4 1 0.601 1.8 0.033-0.333 0.183-0.667 0.45-1 0.366-0.466 0.55-0.716 0.55-0.75 0.767 0.767 1.183 1.934 1.25 3.5 0.366-1.4 1.033-1.35 2 0.15 0.967 1.434 0.967 2.767 0 4 0.133 0 0.399 0.017 0.8 0.05 0.4 0.066 0.684 0.083 0.85 0.05-0.3 0.534-1.066 1.417-2.3 2.65 2.5 0.067 4.267 0.2 5.3 0.4 2.434 0.5 3.4 1.466 2.9 2.9-0.164 0.022-0.314 0.039-0.45 0.05 0.886 0.051 1.836 0.284 2.851 0.7 1.333 0.566 1.199 1-0.4 1.3 0.5 0.133 0.783 0.35 0.85 0.65-1 0.934-2.699 1.7-5.1 2.3-2.667 0.7-4.35 0.534-5.05-0.5-0.667 0.233-1.567 0.283-2.7 0.15-1.467-0.2-2.333-0.3-2.6-0.3-1.7 0.2-2.983 0.283-3.851 0.25-0.066 0.433-0.1 1.017-0.1 1.75 0 0.866-0.017 1.45-0.05 1.75-0.167-0.066-0.45-0.101-0.851-0.101-0.399 0.034-0.649 0.034-0.75 0 0.2 1-0.033 1.817-0.7 2.45l-0.35-0.6c-0.2-0.267-0.283-0.584-0.25-0.95-0.4 1.167-1.483 2-3.25 2.5-1.767 0.467-3.066 0.333-3.9-0.4 0.267-0.133 0.617-0.35 1.051-0.649 0.148-0.095 0.307-0.17 0.475-0.226-0.68 0.038-1.255-0.154-1.725-0.574-0.5 0.633-1.018 0.933-1.551 0.899-0.533-0.066-0.8-0.483-0.8-1.25-0.3 1.033-0.95 1.434-1.95 1.2-0.899-0.2-1.666-0.7-2.3-1.5-0.133 0.6-0.316 0.967-0.55 1.1-0.3 0.101-0.583 0.217-0.85 0.351l-0.025-0.8c8e-3 1.991-0.768 2.924-2.325 2.8 0.033-0.101 0.117-0.483 0.25-1.15 0.101-0.5 0.25-0.883 0.45-1.149h-1.8c-0.667 0-1.25-0.067-1.75-0.2 0.341-0.542 0.766-0.967 1.274-1.275-1.936 0.738-4.127 1.247-6.574 1.525 0.333 1.166-0.467 1.616-2.4 1.35 0.066 1.267-0.384 2.017-1.35 2.25 0-0.2-0.051-0.566-0.15-1.1-0.017-0.116-0.025-0.225-0.025-0.325-0.13 0.812-0.371 1.52-0.725 2.125-0.6 0.967-1.45 1.4-2.55 1.3 0.066-0.333 0.05-0.833-0.05-1.5-1.134 0.3-1.801 0.467-2 0.5-0.768 0.101-1.434 0.033-2-0.2 0.294-0.989 0.719-1.84 1.274-2.55-0.604 0.562-1.446 0.895-2.524 1-1.601 0.033-2.784 0.084-3.55 0.15-0.133 1.633-0.417 2.833-0.85 3.6-1.233 0.033-2.083-0.816-2.55-2.55-0.634 1.267-1.134 2.184-1.5 2.75-0.634 0.934-1.4 1.583-2.3 1.95-0.6-0.7-0.8-1.75-0.6-3.15-0.333 0.834-0.933 1.417-1.8 1.75-0.767 0.3-1.633 0.384-2.6 0.25-0.07-0.682 0.063-1.256 0.4-1.725-0.406 0.253-0.989 0.411-1.75 0.475-1.033 0.101-2 0.017-2.9-0.25 0.1-0.066 0.35-0.333 0.75-0.8 0.267-0.3 0.55-0.517 0.85-0.65-1.967 0-3.45-0.017-4.45-0.05 0.2-0.1 0.517-0.316 0.95-0.649 0.4-0.334 0.733-0.551 1-0.65h-2.75c-1.1 0-2.017-0.1-2.75-0.3 0.733-1.367 2.4-2.167 5-2.4-0.632-0.168-0.874-0.385-0.725-0.649-0.167-0.011-0.342-0.027-0.525-0.051 0.066-0.166 0.133-0.466 0.2-0.899 0.1-0.4 0.267-0.733 0.5-1-1.1 0.633-2.2 1.05-3.3 1.25-1.367 0.233-2.5 0.05-3.4-0.55-0.066-0.4 0.05-0.7 0.35-0.9-2.567 0.6-4.417 0.667-5.55 0.2-0.366 0.8-0.883 1.399-1.55 1.8-0.7 0.434-1.467 0.6-2.3 0.5 0-0.167-0.017-0.483-0.05-0.95-0.029-0.379-0.029-0.654 0-0.825-0.344 1.694-0.911 2.936-1.7 3.726-0.934 0.899-2.233 1.233-3.9 1 0.058-0.462 0.225-0.912 0.5-1.351-0.653 0.624-1.336 0.841-2.05 0.65-1.033-0.3-1.417-1.233-1.15-2.8-0.6 2.1-1.617 2.783-3.05 2.05-0.815-0.427-1.198-1.077-1.15-1.95-0.491 0.243-1.107 0.293-1.85 0.15-0.833-0.134-1.366-0.434-1.6-0.9-0.3-0.533-0.017-1.066 0.85-1.6-0.6 0.233-1.417 0.184-2.45-0.15 0.1-1 0.65-1.8 1.65-2.4-0.8-0.066-1.367-0.083-1.7-0.05-0.078-0.806 0.181-1.38 0.775-1.725-0.804 0.247-1.712 0.239-2.725-0.028 0.265-0.626 0.773-1.16 1.525-1.6-0.545 0.109-1.07-0.058-1.575-0.5 0.067-0.066 0.217-0.316 0.45-0.75 0.131-0.229 0.39-0.38 0.775-0.45-1.72 0.266-3.079 0.199-4.075-0.2 0.667-1.067 1.9-1.85 3.7-2.35-1.4 0.067-2.367-0.133-2.9-0.6 0.785-0.188 1.619-0.338 2.5-0.45-1.395 0.137-2.462-0.18-3.2-0.95 0.9-0.066 2.684-0.066 5.35 0-2.033-0.333-4.05-1.15-6.05-2.45 0.333-0.566 1.267-0.833 2.8-0.8 0.833 0.033 1.917 0.1 3.25 0.2l-0.35-0.95c0.733-0.167 1.417-0.117 2.05 0.15s1.1 0.717 1.4 1.35c0-0.367 0.066-0.867 0.2-1.5 1-0.1 2.15 0.434 3.45 1.6 0.733 0.633 1.633 1.617 2.7 2.95-0.267-1-0.4-1.767-0.4-2.3 0-0.8 0.25-1.483 0.75-2.05 0.274 0.061 0.565 0.169 0.875 0.325-0.059-0.423-0.051-0.798 0.025-1.125 1.033-0.1 1.9 0.5 2.6 1.8 2.133-1.833 3.283-1.267 3.45 1.7 0.534-1.066 1.25-1.783 2.15-2.15 0.267-0.112 0.525-0.178 0.775-0.2-0.136-0.308-0.077-0.675 0.175-1.1 0.648-1.005 1.757-1.205 3.325-0.6-0.83-0.351-1.372-1-1.625-1.95 0.633-0.633 1.533-0.867 2.7-0.7 0.209 0.031 0.409 0.073 0.6 0.125-0.292-0.36-0.508-0.785-0.65-1.275 1.367-0.633 3.017-0.667 4.95-0.1 1.867 0.566 3.267 1.483 4.2 2.75-0.3-1.534 0.184-2.217 1.45-2.05 1.2 0.133 2.066 0.75 2.6 1.85 2.3-1.833 3.6-2.833 3.9-3 1.866-0.933 3.1-0.4 3.7 1.6 0.2-1.433 1.35-1.883 3.45-1.35 1.688 0.443 2.805 1.093 3.35 1.95-0.242-0.692-0.126-1.342 0.35-1.95 0.6-0.767 1.184-0.617 1.75 0.45 0.6-1.5 1.8-2.433 3.6-2.8z" fill="#314D15"/>
	<path d="m27.55 8.3c1.333-0.333 2-1.1 2-2.3 0.634-0.167 1.284-0.133 1.95 0.1 0.667 0.2 1.233 0.566 1.7 1.1-0.067-0.333-0.067-0.784 0-1.35 0.066-0.667 0.1-1.1 0.1-1.3 1.167-0.2 2.034 0.217 2.6 1.25-0.333-1.466 0.217-1.883 1.65-1.25 1.4 0.6 2.3 1.35 2.7 2.25 0.2-0.566 0.6-0.566 1.2 0 0.566 0.534 0.95 1.117 1.15 1.75 1.133 0 1.667 0.767 1.6 2.3l2.65 0.1c-0.133 0.4-0.417 0.716-0.85 0.95 0.8-0.2 1.367-0.05 1.7 0.45 0.3 0.433 0.35 1.05 0.15 1.85 0.533-0.2 1.383-0.284 2.55-0.25 0.167 0.533 0 1-0.5 1.4l-1.5 0.9c0.233 0.067 1.017 0.133 2.35 0.2 1.267 0.1 1.883 0.35 1.85 0.75-0.034 0.466-0.267 0.816-0.7 1.05-0.367 0.233-0.8 0.333-1.3 0.3 1.566 0.267 2.7 0.6 3.4 1-0.7 0.9-1.95 1.35-3.75 1.35 0.4 0.267 0.633 0.583 0.7 0.95 0 0.4 0.05 0.733 0.15 1-1.2 0.4-2.083 0.167-2.65-0.7-1.367-0.033-2.75 0.467-4.15 1.5 0.1 0.567 0.184 0.966 0.25 1.2-1.8 0.267-3.133 0-4-0.8-0.133 0.967-0.6 1.65-1.4 2.05-0.833 0.4-1.617 0.301-2.35-0.3 0.167-0.267 0.167-0.533 0-0.8-1.3 0.267-2.5 0.333-3.6 0.2 0.433-0.634 1.4-1.084 2.9-1.35-1.3 0.133-2.333 0.2-3.1 0.2-1.333 0-2.184-0.267-2.55-0.8 0.7-0.467 1.85-0.933 3.45-1.4-0.267 0.066-0.617 0.083-1.05 0.05l-1.05-0.05c0.346-0.665 0.787-1.198 1.325-1.6-0.731 0.417-1.689 0.667-2.875 0.75-0.633 0.033-1.883-0.017-3.75-0.15 0.158-0.535 0.508-0.976 1.05-1.325-1.416 0.439-3.099 0.547-5.05 0.325 0.1-0.1 0.267-0.3 0.5-0.6 0.233-0.267 0.467-0.467 0.7-0.6-0.934 0.467-2.083 0.733-3.45 0.8-1.434 0.033-2.583-0.217-3.45-0.75 0.8-0.867 2.3-1.567 4.5-2.1-1.066 0.066-2.083-0.05-3.05-0.35 0.033-0.033 0.167-0.233 0.4-0.6 0.233-0.333 0.467-0.566 0.7-0.7-0.367 0.066-0.75 0-1.15-0.2l-1.05-0.45c0.133-0.133 0.35-0.383 0.65-0.75-0.767-0.2-1.3-0.3-1.6-0.3 0.6-0.833 1.933-1.167 4-1-0.667-0.2-1.15-0.533-1.45-1-0.233-0.333-0.417-0.883-0.55-1.65 0.333 0.066 0.65 0.1 0.95 0.1 0.066 0.011 0.133 0.036 0.2 0.075-0.162-0.15-0.262-0.292-0.3-0.425-0.033-0.166-0.05-0.517-0.05-1.05 1.1-0.366 2.05-0.116 2.85 0.75 0-0.2 0.05-0.483 0.15-0.85 0.1-0.4 0.133-0.684 0.1-0.85 1.267 0.267 2.316 1.1 3.15 2.5 0.033-0.3 0.117-0.8 0.25-1.5 0.2 0.333 0.35 0.583 0.45 0.75 0.066 0.1 0.117 0.208 0.15 0.325-0.01-0.684 0.157-1.259 0.5-1.725 0.396 0.288 0.695 0.629 0.9 1.025 0.015-0.126 0.031-0.267 0.05-0.425z" fill="#385C19"/>
	<path d="m68.2 2.75c0.056-1.1 0.789-1.633 2.2-1.6 1.366 0.067 2.316 0.517 2.85 1.35-0.066-0.333-0.117-0.85-0.15-1.55 0.934 0.033 1.983 0.316 3.15 0.85 0.633 0.267 1.583 0.733 2.85 1.4-0.033-0.233 0.017-0.583 0.15-1.05 0.167-0.5 0.25-0.816 0.25-0.95 1.7 0.233 3.15 1.35 4.35 3.35 0-0.333 0.101-0.767 0.301-1.3 0.333 0.167 0.666 0.317 1 0.45 0.232 0.167 0.366 0.533 0.399 1.1 0.2-0.167 0.483-0.283 0.851-0.35 0.433-0.1 0.683-0.167 0.75-0.2 0.166 0.467 0.267 0.783 0.3 0.95 0.467-0.267 1.267-0.467 2.399-0.6-0.033 1.066-0.616 1.933-1.75 2.6 0.434-0.133 1.067-0.333 1.9-0.6 0.7-0.233 1.333-0.333 1.9-0.3-0.101 0.167-0.233 0.5-0.4 1s-0.316 0.817-0.45 0.95c0.566 0.2 0.95 0.317 1.15 0.35-0.3 0.566-0.533 0.95-0.7 1.15 0.2 0.033 0.467 0.167 0.8 0.4 0.367 0.233 0.583 0.367 0.65 0.4-0.167 0.5-0.283 0.8-0.351 0.9 0.748-0.423 1.481-0.515 2.2-0.275 0.63-0.419 1.296-0.761 2-1.025 1.233-0.466 2.25-0.566 3.05-0.3-0.699-0.433-0.783-0.916-0.249-1.45 0.5-0.5 1.117-0.783 1.851-0.85-1.367 0.1-2.667-0.116-3.9-0.65 0.033-0.267-0.017-0.7-0.149-1.3-0.733-0.233-1.167-0.35-1.301-0.35 0.533-0.833 1.301-1.3 2.301-1.4-0.567-0.167-0.967-0.283-1.2-0.35 0.066-0.233 0.365-0.733 0.899-1.5 0.367-0.533 0.467-1.017 0.301-1.45 1.1-0.566 3.033-0.683 5.8-0.35 1.133 0.167 2.333 0.683 3.6 1.55 1.5 1 2.167 2.017 2 3.05 0.2-0.167 0.434-0.283 0.7-0.35 0.333-0.067 0.55-0.15 0.65-0.25 0.166 0.533 0.283 0.933 0.35 1.2 0.1 0.5 0.116 0.934 0.05 1.3 0.233-0.133 0.566-0.233 1-0.3 0.5-0.033 0.816-0.083 0.95-0.15-0.1 1.133 0.467 1.8 1.7 2-0.067 0.133-0.134 0.383-0.2 0.75-0.033 0.367-0.1 0.633-0.2 0.8 0.167-0.2 0.434-0.366 0.8-0.5 0.101 0.134 0.301 0.784 0.601 1.95 0.166 0.767 0.6 1.217 1.3 1.35 0.333 1.267-0.033 2.433-1.1 3.5 0.366 0.033 0.982 0.183 1.85 0.45-0.767 0.534-1.7 0.85-2.8 0.95 1.233-0.066 2.366 0.05 3.399 0.35 0.101 1.033-0.517 1.583-1.85 1.65l0.6 0.4c-0.8 0.367-1.6 0.4-2.399 0.1-0.867-0.433-1.533-0.683-2-0.75-0.533-0.066-1.367-0.017-2.5 0.15-1.02 0.12-1.812 0.162-2.375 0.125-0.093 0.181-0.235 0.339-0.425 0.475-0.434 0.333-0.983 0.367-1.65 0.1 0.066-0.067 0.15-0.25 0.25-0.55 0.058-0.135 0.133-0.26 0.225-0.375-0.489 0.445-1.165 0.753-2.024 0.925-0.9 0.2-1.834 0.233-2.8 0.1 0.133-0.2 0.283-0.534 0.449-1 0.2-0.367 0.45-0.667 0.75-0.9-2.341 0.689-4.399 1.014-6.175 0.975-0.33 0.208-0.738 0.399-1.225 0.575-0.711 0.237-1.286 0.337-1.726 0.3 0.084 0.261-0.175 0.711-0.774 1.35-0.567 0.6-2.05 0.95-4.45 1.05 0.066-0.167 0.116-0.466 0.15-0.9-0.134 0.867-0.7 1.5-1.7 1.9-0.967 0.367-1.65 0.284-2.05-0.25 0.466 1.066-0.284 1.783-2.25 2.15-1.834 0.366-3.184 0.267-4.051-0.3 0.081-0.128 0.173-0.235 0.275-0.325-0.422 0.097-0.931 0.155-1.524 0.175-1.066 0.033-1.899-0.1-2.5-0.4 0.467-0.233 1.317-0.8 2.551-1.7 1-0.733 1.916-1.233 2.75-1.5-0.7-0.066-1.233-0.117-1.601-0.15-0.633-0.066-1.116-0.183-1.45-0.35 0.301-0.433 0.867-0.767 1.7-1 0.867-0.267 1.467-0.566 1.8-0.9-1.1 0.4-2.1 0.367-3-0.1v-0.65c-2.166 0.833-3.933 1.267-5.3 1.3 0.033-0.066 0.134-0.333 0.3-0.8 0.134-0.333 0.283-0.6 0.45-0.8-1.5 0.966-3.017 1.3-4.55 1 0.3-0.167 0.783-0.45 1.45-0.85-0.467 0-0.817-0.05-1.05-0.15-0.061-0.034-0.119-0.068-0.176-0.1-0.336 0.085-0.661 0.085-0.975 0-0.4-0.133-0.7-0.233-0.9-0.3 0.167-0.2 0.367-0.533 0.601-1 0.233-0.4 0.517-0.7 0.85-0.9l-1.05-0.4c0.267-0.2 0.566-0.5 0.9-0.9 0.333-0.3 0.732-0.467 1.199-0.5-0.833-0.033-1.433-0.05-1.8-0.05 0.134-0.1 0.351-0.366 0.65-0.8 0.233-0.4 0.483-0.683 0.75-0.85-2.334 0.2-4.033 0.117-5.101-0.25 0.167-0.167 0.384-0.483 0.65-0.95-0.267-0.034-0.667-0.15-1.2-0.35-0.566-0.2-0.933-0.317-1.1-0.35 0.167-0.133 0.466-0.45 0.899-0.95-0.633-0.233-1.066-0.366-1.3-0.4 0.667-0.5 1.717-0.85 3.15-1.05-1.9 0.2-3.267 0-4.1-0.6 0.367-0.2 0.9-0.55 1.6-1.05-0.4 0.066-0.75 0.05-1.05-0.05-0.2-0.167-0.233-0.367-0.1-0.6-0.536-0.119-0.903-0.453-1.1-1 0.533-0.633 1.333-0.983 2.4-1.05 0.167-0.667 0.633-1.017 1.4-1.05 0.7-0.034 1.333 0.2 1.9 0.7-0.167-1.133 0.133-1.767 0.899-1.9 0.792-0.099 1.175 0.401 1.154 1.5z" fill="#385C19"/>
			<radialGradient id="l" cx="39.788" cy="20.546" r="5.6902" gradientTransform="matrix(.9995 -.0308 -.0264 -.525 1.5717 31.311)" gradientUnits="userSpaceOnUse">
			<stop stop-opacity=".6196" offset="0"/>
			<stop stop-opacity="0" offset="1"/>
		</radialGradient>
		<path d="m46.5 19.15c0.066 0.833-0.45 1.55-1.55 2.15-1.1 0.634-2.434 0.967-4 1-1.567 0.067-2.917-0.183-4.05-0.75-1.133-0.533-1.716-1.216-1.75-2.05-0.033-0.833 0.483-1.55 1.55-2.15 1.066-0.6 2.383-0.934 3.95-1 1.567-0.033 2.917 0.217 4.05 0.75 1.167 0.533 1.767 1.217 1.8 2.05z" fill="url(#l)"/>
			<radialGradient id="m" cx="39.704" cy="19.935" r="4.7012" gradientTransform="matrix(.9996 -.0292 -.0292 -.5476 1.6465 30.829)" gradientUnits="userSpaceOnUse">
			<stop stop-color="#857839" offset="0"/>
			<stop stop-color="#FFF6E3" offset="1"/>
		</radialGradient>
		<path d="m38.95 17.55c0.1-0.6 0.667-1.066 1.7-1.4 1.034 0.267 1.633 0.7 1.8 1.3v0.3l0.55-0.05c1.1 0.033 1.917 0.333 2.45 0.9-0.467 0.6-1.25 0.95-2.35 1.05h-0.55v0.3c-0.066 0.367-0.366 0.716-0.9 1.05l-0.75 0.35c-0.267-0.067-0.533-0.167-0.8-0.3-0.567-0.3-0.9-0.633-1-1-0.034-0.1-0.034-0.2 0-0.3h-0.55c-0.7-0.033-1.316-0.183-1.85-0.45l-0.65-0.4 0.6-0.45c0.5-0.333 1.1-0.534 1.8-0.6h0.55l-0.05-0.3z" fill="url(#m)"/>
		<path d="m39.75 18c0.333 0 0.617 0.033 0.85 0.1l0.15 0.1 0.15-0.1c0.333-0.167 0.733-0.217 1.2-0.15 0.167 0.233 0.1 0.45-0.2 0.65l-0.15 0.1 0.2 0.1c0.267 0.167 0.333 0.384 0.2 0.65-0.433 0.1-0.833 0.083-1.2-0.05l-0.15-0.1-0.15 0.1c-0.233 0.1-0.5 0.15-0.8 0.15h-0.4l-0.05-0.25c-0.033-0.167 0.034-0.316 0.2-0.45l0.15-0.1-0.15-0.05c-0.2-0.133-0.3-0.284-0.3-0.45 0-0.066 0.017-0.133 0.05-0.2l0.4-0.05z" fill="#C4A656"/>
			<radialGradient id="n" cx="31.051" cy="-.2212" r="4.227" gradientTransform="matrix(.9256 .3785 .6801 -.4968 .3598 -.263)" gradientUnits="userSpaceOnUse">
			<stop stop-opacity=".6196" offset="0"/>
			<stop stop-opacity="0" offset="1"/>
		</radialGradient>
		<path d="m32.9 13.2c-0.8 0.566-1.867 0.9-3.2 1s-2.534-0.067-3.6-0.5c-1.067-0.467-1.717-1.05-1.95-1.75-0.2-0.733 0.1-1.383 0.9-1.95 0.8-0.566 1.867-0.9 3.2-1s2.533 0.067 3.6 0.5c1.066 0.467 1.7 1.05 1.9 1.75 0.2 0.733-0.083 1.383-0.85 1.95z" fill="url(#n)"/>
			<radialGradient id="o" cx="30.424" cy="-.9575" r="3.4866" gradientTransform="matrix(.925 .38 .7134 -.5199 1.5919 -1.1595)" gradientUnits="userSpaceOnUse">
			<stop stop-color="#857839" offset="0"/>
			<stop stop-color="#FFF6E3" offset="1"/>
		</radialGradient>
		<path d="m31.55 9.05c0.434 0.5 0.4 0.983-0.1 1.45l-0.3 0.2 0.4 0.15c0.667 0.367 0.9 0.816 0.7 1.35-0.9 0.267-1.75 0.267-2.55 0l-0.4-0.15-0.25 0.2c-0.433 0.267-0.983 0.417-1.65 0.45h-0.85l-0.25-0.45c-0.066-0.367 0.05-0.7 0.35-1l0.3-0.2c-0.167 0-0.3-0.05-0.4-0.15-0.433-0.2-0.683-0.483-0.75-0.85-0.033-0.2-0.033-0.366 0-0.5l0.85-0.15c0.633-0.033 1.217 0.017 1.75 0.15l0.35 0.2 0.3-0.25c0.667-0.367 1.5-0.517 2.5-0.45z" fill="url(#o)"/>
		<path d="m28.35 10.6l-0.05-0.1c0-0.233 0.167-0.417 0.5-0.55 0.4 0.1 0.65 0.25 0.75 0.45v0.1h0.2c0.4-0.033 0.717 0.05 0.95 0.25-0.134 0.2-0.4 0.333-0.8 0.4h-0.15v0.1c0 0.133-0.083 0.267-0.25 0.4l-0.25 0.15c-0.1 0-0.2-0.033-0.3-0.1-0.233-0.067-0.384-0.167-0.45-0.3v-0.15l-0.2 0.05c-0.233 0-0.45-0.033-0.65-0.1l-0.25-0.15 0.15-0.2c0.167-0.133 0.367-0.217 0.6-0.25h0.2z" fill="#C4A656"/>
			<radialGradient id="p" cx="78.651" cy="8.5923" r="5.6881" gradientTransform="matrix(1 -.0088 -.0154 -.5253 .3833 13.103)" gradientUnits="userSpaceOnUse">
			<stop stop-opacity=".6196" offset="0"/>
			<stop stop-opacity="0" offset="1"/>
		</radialGradient>
		<path d="m84.55 7.85c0.033 0.833-0.5 1.55-1.6 2.15-1.101 0.567-2.434 0.867-4 0.9-1.567 0-2.9-0.283-4-0.85-1.134-0.566-1.717-1.267-1.75-2.1s0.5-1.55 1.6-2.15c1.101-0.6 2.434-0.9 4-0.9 1.566-0.033 2.917 0.25 4.05 0.85 1.1 0.567 1.667 1.267 1.7 2.1z" fill="url(#p)"/>
			<radialGradient id="q" cx="78.623" cy="7.9287" r="4.7001" gradientTransform="matrix(1 -.008 -.016 -.5505 .3562 12.292)" gradientUnits="userSpaceOnUse">
			<stop stop-color="#857839" offset="0"/>
			<stop stop-color="#FFF6E3" offset="1"/>
		</radialGradient>
		<path d="m74.75 7.8l-0.6-0.45 0.6-0.45c0.5-0.3 1.1-0.483 1.8-0.55h0.55l-0.05-0.3c0.101-0.6 0.667-1.05 1.7-1.35 1.033 0.3 1.633 0.75 1.8 1.35v0.3c0.167-0.067 0.351-0.067 0.55 0 1.101 0.033 1.917 0.333 2.45 0.9-0.5 0.6-1.3 0.934-2.399 1h-0.551v0.3c-0.066 0.367-0.366 0.7-0.899 1l-0.801 0.35c-0.268-0.066-0.534-0.167-0.801-0.3-0.533-0.3-0.85-0.65-0.949-1.05-0.034-0.1-0.034-0.2 0-0.3l-0.55 0.05c-0.7-0.033-1.317-0.2-1.85-0.5z" fill="url(#q)"/>
		<path d="m77.45 6.55l1.2 0.1 0.149 0.1 0.15-0.1c0.366-0.133 0.783-0.167 1.25-0.1 0.134 0.233 0.068 0.45-0.199 0.65l-0.15 0.1 0.15 0.1c0.3 0.167 0.366 0.383 0.2 0.65-0.434 0.067-0.834 0.034-1.2-0.1l-0.15-0.1-0.15 0.1c-0.233 0.1-0.5 0.15-0.8 0.15l-0.4-0.05-0.05-0.2c-0.033-0.167 0.033-0.317 0.2-0.45l0.199-0.1-0.199-0.05c-0.167-0.133-0.25-0.283-0.25-0.45 0-0.1 0.017-0.183 0.05-0.25z" fill="#C4A656"/>
			<radialGradient id="r" cx="108.6" cy="16.544" r="6.8497" gradientTransform="matrix(1 -.0091 -.0146 -.5255 .7007 25.235)" gradientUnits="userSpaceOnUse">
			<stop stop-opacity=".6196" offset="0"/>
			<stop stop-opacity="0" offset="1"/>
		</radialGradient>
		<path d="m104.15 13.05c1.3-0.733 2.899-1.1 4.8-1.1 1.899-0.034 3.533 0.3 4.899 1 1.334 0.7 2.017 1.55 2.051 2.55 0.033 0.967-0.617 1.817-1.95 2.55-1.3 0.7-2.9 1.067-4.8 1.1-1.9 0-3.534-0.333-4.9-1-1.333-0.7-2.017-1.55-2.05-2.55s0.62-1.85 1.95-2.55z" fill="url(#r)"/>
			<radialGradient id="s" cx="108.56" cy="15.812" r="5.6627" gradientTransform="matrix(1 -.0088 -.0155 -.5496 .6885 24.5)" gradientUnits="userSpaceOnUse">
			<stop stop-color="#857839" offset="0"/>
			<stop stop-color="#FFF6E3" offset="1"/>
		</radialGradient>
		<path d="m106.3 16c-0.833-0.033-1.566-0.233-2.2-0.6l-0.75-0.5 0.7-0.55c0.634-0.367 1.351-0.583 2.15-0.65h0.7c-0.067-0.133-0.084-0.25-0.051-0.35 0.134-0.733 0.817-1.283 2.051-1.65 1.267 0.333 1.982 0.867 2.149 1.6 0.033 0.134 0.033 0.25 0 0.35h0.65c1.333 0.067 2.316 0.45 2.95 1.15-0.601 0.7-1.567 1.083-2.9 1.15-0.2 0.066-0.417 0.066-0.65 0l0.051 0.4c-0.067 0.433-0.434 0.833-1.101 1.2l-0.95 0.4c-0.3-0.067-0.633-0.2-1-0.4-0.666-0.333-1.05-0.733-1.149-1.2-0.067-0.1-0.067-0.217 0-0.35h-0.65z" fill="url(#s)"/>
		<path d="m107.8 14.85l-0.2-0.1c-0.233-0.133-0.35-0.316-0.35-0.55 0-0.1 0.017-0.184 0.05-0.25l0.5-0.05c0.4 0 0.733 0.05 1 0.15l0.15 0.1 0.2-0.1c0.433-0.167 0.916-0.216 1.449-0.15 0.2 0.3 0.134 0.567-0.199 0.8l-0.2 0.15 0.2 0.1c0.333 0.233 0.416 0.5 0.25 0.8-0.534 0.1-1.018 0.05-1.45-0.15l-0.2-0.1-0.15 0.1c-0.267 0.133-0.583 0.2-0.949 0.2l-0.5-0.05-0.1-0.25c0-0.233 0.101-0.417 0.3-0.55l0.2-0.1z" fill="#C4A656"/>
			<radialGradient id="t" cx="103.53" cy="5.6118" r="4.5127" gradientTransform="matrix(1 -.0083 -.0166 -.5263 .2708 8.5642)" gradientUnits="userSpaceOnUse">
			<stop stop-opacity=".6196" offset="0"/>
			<stop stop-opacity="0" offset="1"/>
		</radialGradient>
		<path d="m103.65 2.4c1.232-0.033 2.3 0.184 3.199 0.65 0.9 0.434 1.367 0.983 1.4 1.65 0 0.667-0.434 1.233-1.3 1.7-0.834 0.467-1.884 0.717-3.15 0.75-1.233 0-2.3-0.233-3.2-0.7-0.9-0.433-1.367-0.983-1.4-1.65s0.383-1.233 1.25-1.7c0.9-0.467 1.97-0.7 3.2-0.7z" fill="url(#t)"/>
			<radialGradient id="k" cx="103.55" cy="4.9961" r="3.7251" gradientTransform="matrix(1 -.0067 -.0168 -.5503 .2366 7.7445)" gradientUnits="userSpaceOnUse">
			<stop stop-color="#857839" offset="0"/>
			<stop stop-color="#FFF6E3" offset="1"/>
		</radialGradient>
		<path d="m99.95 4.35l0.45-0.35c0.433-0.267 0.916-0.417 1.449-0.45h0.45l-0.05-0.25c0.1-0.466 0.55-0.816 1.35-1.05 0.834 0.2 1.317 0.55 1.45 1.05v0.25l0.4-0.05c0.899 0.067 1.55 0.317 1.95 0.75-0.4 0.467-1.034 0.733-1.9 0.8h-0.45l0.05 0.25c-0.066 0.3-0.316 0.567-0.75 0.8l-0.6 0.25c-0.2-0.033-0.417-0.117-0.65-0.25-0.433-0.233-0.699-0.5-0.8-0.8l0.05-0.25-0.45 0.05c-0.534-0.033-1.018-0.167-1.45-0.4l-0.5-0.35z" fill="url(#k)"/>
		<path d="m104.75 3.7c0.133 0.2 0.083 0.383-0.15 0.55l-0.15 0.05 0.149 0.05c0.233 0.167 0.301 0.35 0.2 0.55-0.366 0.067-0.7 0.034-1-0.1l-0.1-0.05-0.15 0.05c-0.167 0.1-0.366 0.15-0.6 0.15l-0.35-0.05-0.05-0.15c0-0.133 0.066-0.25 0.2-0.35l0.15-0.1-0.15-0.05c-0.134-0.1-0.2-0.217-0.2-0.35 0-0.066 0.017-0.133 0.05-0.2h0.301c0.232 0 0.449 0.033 0.649 0.1l0.101 0.05 0.15-0.05c0.27-0.133 0.58-0.167 0.95-0.1z" fill="#C4A656"/>
</g>
</svg>